<svg version="1.0" viewBox="0 0 303 174" xmlns="http://www.w3.org/2000/svg">
<path d="m252.57 2.2109a0.77 0.77 0 0 0-0.84571 0.76953l0.19922 30.139a0.77 0.77 0 0 1-0.5293 0.74023l-28.74 9.1113a0.77 0.77 0 0 0 0 1.4688l28.73 9.1211a0.77 0.77 0 0 1 0.53906 0.74023l-0.2207 30.139a0.77 0.77 0 0 0 1.4004 0.46094l17.551-24.51a0.77 0.77 0 0 1 0.86914-0.29102l28.6 9.5312a0.77 0.77 0 0 0 0.86133-1.1914l-17.881-24.27a0.77 0.77 0 0 1 0-0.91016l17.891-24.26a0.77 0.77 0 0 0-0.85937-1.1895l-28.611 9.5098a0.77 0.77 0 0 1-0.85937-0.28125l-17.551-24.52a0.77 0.77 0 0 0-0.54297-0.30859zm-150.57 56.908c-10.753 0.086666-21.709 0.13086-32.869 0.13086a0.88 0.88 0 0 0-0.88086 0.88086l0.060547 83.068a0.51 0.51 0 0 0 0.49023 0.51172c10.313 0.43333 20.623 0.49612 30.93 0.18945 8.66-0.25333 15.1-1.0712 19.32-2.4512 6.4133-2.0933 12.083-5.5553 17.01-10.389 7.4267-7.28 11.412-16.301 11.959-27.061 0.51333-10.093-1.8859-18.92-7.1992-26.48-3.7667-5.3667-8.7698-9.662-15.01-12.889-7.2467-3.7467-15.184-5.5851-23.811-5.5117zm126.76 0.13086a1.27 1.25 16.5 0 0-1.0488 0.56055l-29.041 43.779a0.71 0.7 45.1 0 1-1.1699-0.00976l-29.289-43.859a0.95 0.91 72.6 0 0-0.77149-0.41992l-14.51 0.009766a0.68 0.69 0 0 0-0.67969 0.68945v83.07a0.92 0.93 0 0 0 0.91992 0.92969l19.529-0.06055a0.79 0.79 0 0 0 0.79101-0.78906l-0.16992-40.5c0-0.90667 0.2469-0.9807 0.74024-0.2207l17.65 27.189a2.35 2.07 71.2 0 0 1.8496 1.0606l9.6894-0.12891a0.91 1.01 17.5 0 0 0.7793-0.46094l17.65-27.16c0.71333-1.0933 1.0703-0.99255 1.0703 0.30078v39.92a0.85 0.85 0 0 0 0.84961 0.84961h19.26a0.96 0.96 0 0 0 0.96093-0.96094l-0.00976-83.209a0.57 0.58 0 0 0-0.57032-0.58008h-14.48zm-166.32 0.060547-62.439 0.12891v1.75 82.5l0.21094 0.06055 19.828 0.2207a0.95 0.98 0.3 0 0 0.96094-0.98047v-28.109a0.88 0.88 0 0 1 0.88086-0.88086h34.84a0.77 0.77 0 0 0 0.76953-0.76953l-0.050781-16.781a0.71 0.7 0 0 0-0.70898-0.69922h-35.061a0.48 0.46 0 0 1-0.48047-0.46094l-0.029297-16.84a0.52 0.52 0 0 1 0.51953-0.51953l40.68-0.17969a0.72 0.71 2.1 0 0 0.7207-0.66016c0.34667-5.6933 0.31062-11.456-0.10938-17.289a0.52 0.53 88.3 0 0-0.53125-0.49023zm39.561 18.869c5.9133-0.073334 11.157 1.7127 15.73 5.3594 4.9933 3.98 7.8864 8.8102 8.6797 14.49 0.74 5.2933-0.3073 10.421-3.1406 15.381-4.2733 7.4667-11.446 11.294-21.52 11.48-4 0.07334-8 0.10938-12 0.10938a0.5 0.5 0 0 1-0.5-0.5v-45.689a0.56 0.56 0 0 1 0.56055-0.56055c4.1267 0 8.1895-0.023646 12.189-0.070312z"/>
</svg>
